G04*
G04 #@! TF.GenerationSoftware,Altium Limited,Altium Designer,21.4.1 (30)*
G04*
G04 Layer_Physical_Order=2*
G04 Layer_Color=16711680*
%FSTAX24Y24*%
%MOIN*%
G70*
G04*
G04 #@! TF.SameCoordinates,28C8F42C-7358-46F7-AC3D-303988F39EDD*
G04*
G04*
G04 #@! TF.FilePolarity,Positive*
G04*
G01*
G75*
%ADD11C,0.0100*%
%ADD23R,0.1000X0.1600*%
%ADD24R,0.1600X0.1000*%
%ADD25O,0.0700X0.1000*%
%ADD26R,0.0700X0.1000*%
%ADD27C,0.0700*%
%ADD28R,0.0800X0.1000*%
%ADD29O,0.0800X0.1000*%
%ADD30C,0.1100*%
%ADD31O,0.1000X0.0700*%
%ADD32R,0.1000X0.0700*%
%ADD33C,0.0200*%
%ADD34C,0.0400*%
%ADD35C,0.0060*%
G36*
X03145Y03235D02*
X0314Y0323D01*
X0118D01*
Y04315D01*
X03145D01*
Y03235D01*
D02*
G37*
%LPC*%
G36*
X0209Y0412D02*
X0198D01*
Y040373D01*
X019797Y04035D01*
Y04014D01*
X018701Y039044D01*
X0179D01*
Y037144D01*
X018701D01*
X020097Y035748D01*
Y0354D01*
X0201Y035377D01*
Y03475D01*
X0214D01*
Y034897D01*
X023889D01*
X02398Y034909D01*
X024065Y034944D01*
X024138Y035D01*
X024271Y035134D01*
X024284Y03513D01*
X024416D01*
X024543Y035164D01*
X024657Y03523D01*
X02475Y035323D01*
X024816Y035437D01*
X02485Y035564D01*
Y035696D01*
X024816Y035823D01*
X02475Y035937D01*
X024657Y03603D01*
X024543Y036096D01*
X024416Y03613D01*
X024284D01*
X024157Y036096D01*
X024043Y03603D01*
X02395Y035937D01*
X023884Y035823D01*
X023855Y035716D01*
X023742Y035603D01*
X0214D01*
Y03575D01*
X020803D01*
Y035894D01*
X020791Y035985D01*
X020756Y03607D01*
X0207Y036143D01*
X0192Y037643D01*
Y038545D01*
X0204Y039744D01*
X020456Y039817D01*
X02049Y0399D01*
X0209D01*
Y040133D01*
X02095Y04015D01*
X020993Y040093D01*
X021098Y040013D01*
X021219Y039963D01*
X0213Y039952D01*
Y04055D01*
Y041148D01*
X021219Y041137D01*
X021098Y041087D01*
X020993Y041007D01*
X02095Y04095D01*
X0209Y040967D01*
Y0412D01*
D02*
G37*
G36*
X0296Y0394D02*
X029586D01*
X02946Y039375D01*
X029342Y039326D01*
X029236Y039255D01*
X029145Y039164D01*
X029074Y039058D01*
X029025Y03894D01*
X029Y038814D01*
Y0388D01*
X0296D01*
Y0394D01*
D02*
G37*
G36*
X01665Y038994D02*
X0161D01*
Y038144D01*
X01665D01*
Y038994D01*
D02*
G37*
G36*
X016D02*
X01545D01*
Y038144D01*
X016D01*
Y038994D01*
D02*
G37*
G36*
X0296Y0387D02*
X029D01*
Y038686D01*
X029025Y03856D01*
X029074Y038442D01*
X029145Y038336D01*
X029236Y038245D01*
X029342Y038174D01*
X02946Y038125D01*
X029586Y0381D01*
X0296D01*
Y0387D01*
D02*
G37*
G36*
X01665Y038044D02*
X0161D01*
Y037194D01*
X01665D01*
Y038044D01*
D02*
G37*
G36*
X016D02*
X01545D01*
Y037194D01*
X016D01*
Y038044D01*
D02*
G37*
G36*
X027423Y042603D02*
X02496D01*
X024869Y042591D01*
X024784Y042556D01*
X02471Y0425D01*
X02375Y04154D01*
X023694Y041466D01*
X023659Y041381D01*
X023647Y04129D01*
Y040903D01*
X022841D01*
X02283Y040927D01*
X022742Y041042D01*
X022627Y04113D01*
X022494Y041186D01*
X02235Y041205D01*
X022206Y041186D01*
X022073Y04113D01*
X021958Y041042D01*
X02187Y040927D01*
X021848Y040875D01*
X021798D01*
X021787Y040902D01*
X021707Y041007D01*
X021602Y041087D01*
X021481Y041137D01*
X0214Y041148D01*
Y04055D01*
Y039952D01*
X021481Y039963D01*
X021602Y040013D01*
X021707Y040093D01*
X021787Y040198D01*
X021798Y040225D01*
X021848D01*
X02187Y040173D01*
X021958Y040058D01*
X022073Y03997D01*
X022206Y039914D01*
X02235Y039895D01*
X022494Y039914D01*
X022627Y03997D01*
X022742Y040058D01*
X02283Y040173D01*
X022841Y040197D01*
X023596D01*
X024043Y03975D01*
X024116Y039694D01*
X024201Y039659D01*
X024292Y039647D01*
X0255D01*
X025591Y039659D01*
X025677Y039694D01*
X02575Y03975D01*
X026199Y0402D01*
X0267D01*
Y0415D01*
X0257D01*
Y040699D01*
X025354Y040353D01*
X025064D01*
X025039Y040403D01*
X025093Y040473D01*
X025138Y040583D01*
X025154Y0407D01*
Y0408D01*
X0247D01*
Y0409D01*
X025154D01*
Y041D01*
X025138Y041117D01*
X025093Y041227D01*
X025021Y041321D01*
X024927Y041393D01*
X024817Y041438D01*
X02473Y04145D01*
X024712Y041503D01*
X025106Y041897D01*
X027277D01*
X02973Y039443D01*
X029703Y0394D01*
X0297D01*
Y03875D01*
Y0381D01*
X029703D01*
X02973Y038057D01*
X029677Y038003D01*
X028D01*
X027909Y037991D01*
X027823Y037956D01*
X02775Y0379D01*
X026051Y0362D01*
X025984D01*
X025857Y036166D01*
X025743Y0361D01*
X02565Y036007D01*
X025584Y035893D01*
X02555Y035766D01*
Y035634D01*
X025584Y035507D01*
X02565Y035393D01*
X025743Y0353D01*
X025857Y035234D01*
X025984Y0352D01*
X026116D01*
X026243Y035234D01*
X026357Y0353D01*
X026404Y035347D01*
X0286D01*
X028691Y035359D01*
X028777Y035394D01*
X02885Y03545D01*
X029471Y036072D01*
X029581Y03605D01*
X029719D01*
X029854Y036077D01*
X029982Y03613D01*
X030096Y036206D01*
X030194Y036304D01*
X03027Y036418D01*
X030323Y036546D01*
X03035Y036681D01*
Y036819D01*
X030323Y036954D01*
X03027Y037082D01*
X030194Y037196D01*
X030096Y037294D01*
X030045Y037328D01*
X030043Y037378D01*
X030072Y0374D01*
X0308Y038128D01*
X030856Y038201D01*
X030891Y038286D01*
X030903Y038377D01*
Y039123D01*
X030891Y039214D01*
X030856Y039299D01*
X0308Y039372D01*
X027672Y0425D01*
X027599Y042556D01*
X027514Y042591D01*
X027423Y042603D01*
D02*
G37*
G36*
X01755Y036753D02*
X01748Y036744D01*
X0166D01*
Y035444D01*
X0185D01*
Y036744D01*
X01762D01*
X01755Y036753D01*
D02*
G37*
G36*
X0209Y034204D02*
X0208D01*
Y0338D01*
X021347D01*
X021338Y033867D01*
X021293Y033977D01*
X021221Y034071D01*
X021127Y034143D01*
X021017Y034188D01*
X0209Y034204D01*
D02*
G37*
G36*
X0207D02*
X0206D01*
X020483Y034188D01*
X020373Y034143D01*
X020279Y034071D01*
X020207Y033977D01*
X020162Y033867D01*
X020153Y0338D01*
X0207D01*
Y034204D01*
D02*
G37*
G36*
X026109Y03415D02*
X0261D01*
Y03375D01*
X0265D01*
Y033759D01*
X026469Y033874D01*
X02641Y033976D01*
X026326Y03406D01*
X026224Y034119D01*
X026109Y03415D01*
D02*
G37*
G36*
X026D02*
X025991D01*
X025876Y034119D01*
X025774Y03406D01*
X02569Y033976D01*
X025631Y033874D01*
X0256Y033759D01*
Y03375D01*
X026D01*
Y03415D01*
D02*
G37*
G36*
X024409Y03408D02*
X0244D01*
Y03368D01*
X0248D01*
Y033689D01*
X024769Y033804D01*
X02471Y033906D01*
X024626Y03399D01*
X024524Y034049D01*
X024409Y03408D01*
D02*
G37*
G36*
X0243D02*
X024291D01*
X024176Y034049D01*
X024074Y03399D01*
X02399Y033906D01*
X023931Y033804D01*
X0239Y033689D01*
Y03368D01*
X0243D01*
Y03408D01*
D02*
G37*
G36*
X021347Y0337D02*
X0208D01*
Y033296D01*
X0209D01*
X021017Y033312D01*
X021127Y033357D01*
X021221Y033429D01*
X021293Y033523D01*
X021338Y033633D01*
X021347Y0337D01*
D02*
G37*
G36*
X0207D02*
X020153D01*
X020162Y033633D01*
X020207Y033523D01*
X020279Y033429D01*
X020373Y033357D01*
X020483Y033312D01*
X0206Y033296D01*
X0207D01*
Y0337D01*
D02*
G37*
G36*
X0265Y03365D02*
X0261D01*
Y03325D01*
X026109D01*
X026224Y033281D01*
X026326Y03334D01*
X02641Y033424D01*
X026469Y033526D01*
X0265Y033641D01*
Y03365D01*
D02*
G37*
G36*
X026D02*
X0256D01*
Y033641D01*
X025631Y033526D01*
X02569Y033424D01*
X025774Y03334D01*
X025876Y033281D01*
X025991Y03325D01*
X026D01*
Y03365D01*
D02*
G37*
G36*
X0248Y03358D02*
X0244D01*
Y03318D01*
X024409D01*
X024524Y033211D01*
X024626Y03327D01*
X02471Y033354D01*
X024769Y033456D01*
X0248Y033571D01*
Y03358D01*
D02*
G37*
G36*
X0243D02*
X0239D01*
Y033571D01*
X023931Y033456D01*
X02399Y033354D01*
X024074Y03327D01*
X024176Y033211D01*
X024291Y03318D01*
X0243D01*
Y03358D01*
D02*
G37*
%LPD*%
G36*
X029157Y037247D02*
X029106Y037196D01*
X02903Y037082D01*
X028977Y036954D01*
X02895Y036819D01*
Y036681D01*
X028972Y036571D01*
X028454Y036053D01*
X026968D01*
X026948Y036099D01*
X028146Y037297D01*
X029136D01*
X029157Y037247D01*
D02*
G37*
D11*
X03145Y04335D02*
Y0452D01*
X0118Y0433D02*
Y0452D01*
X023524Y0451D02*
X03145D01*
X0118D02*
X019406D01*
X03085Y0453D02*
X03145Y0451D01*
X03085Y0449D02*
X03145Y0451D01*
X0118D02*
X0124Y0449D01*
X0118Y0451D02*
X0124Y0453D01*
D23*
X01855Y038094D02*
D03*
X01605D02*
D03*
D24*
X01755Y036094D02*
D03*
D25*
X0247Y04085D02*
D03*
D26*
X0262D02*
D03*
D27*
X02435Y03563D02*
D03*
Y03363D02*
D03*
X02605Y0357D02*
D03*
Y0337D02*
D03*
D28*
X02035Y04055D02*
D03*
D29*
X02135D02*
D03*
X02235D02*
D03*
D30*
X02965Y03675D02*
D03*
Y03875D02*
D03*
D31*
X02075Y03375D02*
D03*
D32*
Y03525D02*
D03*
D33*
X01175Y04315D02*
X03145D01*
X01175D02*
X0118Y0431D01*
Y0323D02*
Y0431D01*
Y0323D02*
X03145D01*
Y04315D01*
D34*
X02235Y04055D02*
X023742D01*
X02441Y04D02*
X0255D01*
X023742Y04055D02*
X024292Y04D01*
X024Y04041D02*
X02441Y04D01*
X024Y04041D02*
Y04129D01*
X02496Y04225D01*
X024292Y04D02*
X02441D01*
X0262Y0407D02*
Y04085D01*
X0255Y04D02*
X0262Y0407D01*
X02496Y04225D02*
X027423D01*
X03055Y039123D01*
X029823Y03765D02*
X03055Y038377D01*
Y039123D01*
X02605Y0357D02*
X028Y03765D01*
X029823D01*
X02535Y03541D02*
Y03599D01*
X02811Y03875D01*
X02965D01*
X01755Y036094D02*
Y0364D01*
X01855Y037794D02*
Y038094D01*
X02045Y0354D02*
Y035894D01*
X01855Y037794D02*
X02045Y035894D01*
X0206Y03525D02*
X02075D01*
X02045Y0354D02*
X0206Y03525D01*
X0247Y041D02*
X0254Y0417D01*
X0267D02*
X02965Y03875D01*
X0254Y0417D02*
X0267D01*
X0247Y04085D02*
Y041D01*
X0286Y0357D02*
X02965Y03675D01*
X02605Y0357D02*
X0286D01*
X0256Y03488D02*
Y03516D01*
X02435Y03363D02*
X0256Y03488D01*
X02535Y03541D02*
X0256Y03516D01*
X026015Y033665D02*
X02605Y0337D01*
X024385Y033665D02*
X026015D01*
X0209Y03375D02*
X024149D01*
X024269Y03363D01*
X02435D01*
X02135Y040389D02*
Y04055D01*
Y040389D02*
X02505Y036689D01*
Y03534D02*
Y036689D01*
X024284Y034574D02*
X02505Y03534D01*
X021724Y034574D02*
X024284D01*
X0209Y03375D02*
X021724Y034574D01*
X02075Y03375D02*
X0209D01*
X02075Y03525D02*
X023889D01*
X024269Y03563D02*
X02435D01*
X023889Y03525D02*
X024269Y03563D01*
X01855Y038094D02*
Y038394D01*
X02015Y039994D01*
Y04035D01*
X02035Y04055D01*
X01605Y03815D02*
Y038394D01*
X020895Y0414D02*
X021273Y041022D01*
Y040627D02*
Y041022D01*
Y040627D02*
X02135Y04055D01*
X01605Y038394D02*
X019056Y0414D01*
X020895D01*
D35*
X019566Y04474D02*
X019766D01*
X019666D01*
Y04534D01*
X019566Y04524D01*
X020065Y04484D02*
X020165Y04474D01*
X020365D01*
X020465Y04484D01*
Y04524D01*
X020365Y04534D01*
X020165D01*
X020065Y04524D01*
Y04514D01*
X020165Y04504D01*
X020465D01*
X021065Y04534D02*
X020865Y04524D01*
X020665Y04504D01*
Y04484D01*
X020765Y04474D01*
X020965D01*
X021065Y04484D01*
Y04494D01*
X020965Y04504D01*
X020665D01*
X021665Y04534D02*
X021265D01*
Y04504D01*
X021465Y04514D01*
X021565D01*
X021665Y04504D01*
Y04484D01*
X021565Y04474D01*
X021365D01*
X021265Y04484D01*
X021865Y04474D02*
Y04484D01*
X021965D01*
Y04474D01*
X021865D01*
X022365Y04524D02*
X022465Y04534D01*
X022665D01*
X022765Y04524D01*
Y04484D01*
X022665Y04474D01*
X022465D01*
X022365Y04484D01*
Y04524D01*
X022965D02*
X023064Y04534D01*
X023264D01*
X023364Y04524D01*
Y04484D01*
X023264Y04474D01*
X023064D01*
X022965Y04484D01*
Y04524D01*
M02*
