G04*
G04 #@! TF.GenerationSoftware,Altium Limited,Altium Designer,21.4.1 (30)*
G04*
G04 Layer_Color=16711935*
%FSTAX24Y24*%
%MOIN*%
G70*
G04*
G04 #@! TF.SameCoordinates,28C8F42C-7358-46F7-AC3D-303988F39EDD*
G04*
G04*
G04 #@! TF.FilePolarity,Positive*
G04*
G01*
G75*
%ADD33C,0.0200*%
D33*
X03155Y04315D02*
G03*
X03145Y04325I-0001J0D01*
G01*
X03155Y04315D02*
G03*
X03145Y04325I-0001J0D01*
G01*
Y0322D02*
G03*
X03155Y0323I0J0001D01*
G01*
X03145Y0322D02*
G03*
X03155Y0323I0J0001D01*
G01*
X01175Y04325D02*
G03*
X011679Y043079I0J-0001D01*
G01*
X01175Y04325D02*
G03*
X011679Y043079I0J-0001D01*
G01*
X0117Y0323D02*
G03*
X0118Y0322I0001J0D01*
G01*
X0117Y0323D02*
G03*
X0118Y0322I0001J0D01*
G01*
X01175Y04315D02*
X03145D01*
X01175D02*
X0118Y0431D01*
Y0323D02*
Y0431D01*
Y0323D02*
X03145D01*
Y04315D01*
X03155Y0323D02*
Y04315D01*
X03135Y0324D02*
Y04305D01*
X0119Y0324D02*
Y04305D01*
X0118Y0322D02*
X03145D01*
X01175Y04325D02*
X03145D01*
X0119Y04305D02*
X03135D01*
X011679Y043079D02*
X0117Y043059D01*
X0119Y0324D02*
X03135D01*
X0117Y0323D02*
Y043059D01*
M02*
